<svg id="Layer_1" data-name="Layer 1" xmlns="http://www.w3.org/2000/svg" viewBox="0 0 76.5 76.5"><defs><style>.cls-1{fill:#fff;}.cls-1,.cls-2{stroke:#010101;stroke-miterlimit:2;stroke-width:1.5px;}.cls-2{fill:#010101;fill-rule:evenodd;}</style></defs><g id="g2252"><rect id="rect2254" class="cls-1" x="0.75" y="0.75" width="75" height="75" rx="25"/><path id="path2256" class="cls-2" d="M26.25,20A6.25,6.25,0,1,1,20,13.75,6.25,6.25,0,0,1,26.25,20Z"/><path id="path2258" class="cls-2" d="M26.25,56A6.25,6.25,0,1,1,20,49.75,6.25,6.25,0,0,1,26.25,56Z"/><path id="path2260" class="cls-2" d="M26.25,38A6.25,6.25,0,1,1,20,31.75,6.25,6.25,0,0,1,26.25,38Z"/><path id="path2262" class="cls-2" d="M62.25,20A6.25,6.25,0,1,1,56,13.75,6.25,6.25,0,0,1,62.25,20Z"/><path id="path2264" class="cls-2" d="M62.25,56A6.25,6.25,0,1,1,56,49.75,6.25,6.25,0,0,1,62.25,56Z"/><path id="path2266" class="cls-2" d="M62.25,38A6.25,6.25,0,1,1,56,31.75,6.25,6.25,0,0,1,62.25,38Z"/></g></svg>